<?xml version="1.0" standalone="no"?>
<!DOCTYPE svg PUBLIC "-//W3C//DTD SVG 20010904//EN"
 "http://www.w3.org/TR/2001/REC-SVG-20010904/DTD/svg10.dtd">
<svg version="1.0" xmlns="http://www.w3.org/2000/svg"
 width="1000.000000pt" height="1000.000000pt" viewBox="0 0 1000.000000 1000.000000"
 preserveAspectRatio="xMidYMid meet">
<metadata>
Created by potrace 1.11, written by Peter Selinger 2001-2013
</metadata>
<g transform="translate(0.000000,1000.000000) scale(0.100000,-0.100000)"
fill="#000000" stroke="none">
<path d="M3550 9964 c-119 -35 -363 -117 -415 -140 -16 -7 -70 -29 -120 -49
-150 -61 -295 -130 -465 -221 -653 -350 -1230 -847 -1692 -1459 -81 -108 -264
-380 -313 -467 -16 -29 -45 -80 -64 -113 -101 -180 -246 -491 -318 -684 -24
-66 -104 -304 -139 -416 -18 -58 -19 -116 -19 -1410 0 -1276 1 -1353 18 -1410
173 -570 367 -994 662 -1439 271 -412 571 -750 975 -1101 288 -250 722 -532
1095 -710 272 -131 522 -225 879 -331 41 -12 245 -14 1360 -14 l1313 0 107 30
c582 163 1155 445 1646 808 371 275 675 569 1009 977 165 202 401 574 536 845
42 85 85 171 96 191 10 20 19 44 19 53 0 9 4 16 9 16 5 0 11 10 14 22 3 13 21
61 40 108 60 144 88 220 134 365 24 77 52 160 61 185 15 41 17 167 19 1380 l3
1335 -25 85 c-14 47 -28 94 -30 106 -9 41 -97 290 -145 410 -150 375 -312 673
-577 1064 -14 21 -149 200 -183 243 -34 44 -213 252 -254 296 -42 44 -266 265
-325 321 -133 125 -415 342 -615 474 -127 84 -183 118 -326 200 -62 36 -386
198 -435 218 -22 9 -94 39 -160 66 -152 62 -356 131 -555 189 -14 4 -628 9
-1365 10 l-1340 1 -115 -34z"/>
</g>
</svg>
